<?xml version="1.0" standalone="no"?>
<!DOCTYPE svg PUBLIC "-//W3C//DTD SVG 20010904//EN"
 "http://www.w3.org/TR/2001/REC-SVG-20010904/DTD/svg10.dtd">
<svg version="1.0" xmlns="http://www.w3.org/2000/svg"
 width="450.000000pt" height="450.000000pt" viewBox="0 0 450.000000 450.000000"
 preserveAspectRatio="xMidYMid meet">

<g transform="translate(0.000000,450.000000) scale(0.100000,-0.100000)"
fill="#000000" stroke="none">
<path d="M0 2250 l0 -2250 2250 0 2250 0 0 2250 0 2250 -2250 0 -2250 0 0
-2250z m2675 1805 c280 -83 484 -241 621 -483 53 -92 78 -157 109 -277 l23
-90 67 -40 c171 -101 295 -283 339 -495 8 -41 19 -76 23 -77 33 -11 141 -94
185 -141 136 -147 185 -374 123 -569 -71 -226 -249 -369 -498 -403 -86 -11
-1378 -12 -2423 -1 l-610 6 -78 38 c-97 48 -174 123 -214 209 -93 196 -59 390
96 550 l65 67 -7 49 c-9 67 10 191 43 289 112 326 408 557 744 580 48 3 91 11
96 17 5 6 16 38 26 71 43 152 139 312 259 431 126 125 260 207 425 258 126 40
172 45 341 42 133 -3 168 -8 245 -31z m-1026 -3305 c47 -116 88 -210 92 -210
14 0 28 30 104 223 l79 197 88 0 88 0 0 -310 0 -310 -69 0 -69 0 -3 164 c-4
158 -10 196 -29 166 -4 -7 -35 -85 -67 -172 l-58 -158 -61 0 -61 0 -63 170
c-38 100 -69 170 -77 170 -10 0 -13 -37 -13 -170 l0 -170 -70 0 -70 0 0 310 0
310 88 0 87 0 84 -210z m999 -3 c48 -116 90 -206 96 -204 6 2 49 96 95 210
l83 207 89 0 89 0 0 -310 0 -310 -75 0 -75 0 0 170 c0 97 -4 170 -9 170 -9 0
-30 -52 -109 -260 l-28 -75 -61 -3 -61 -3 -22 58 c-12 32 -37 100 -56 151 -67
182 -74 178 -74 -38 l0 -170 -70 0 -70 0 0 310 0 311 87 -3 87 -3 84 -208z"/>
<path d="M2218 3884 c-398 -85 -688 -461 -665 -861 8 -136 29 -218 87 -338 82
-170 202 -292 372 -381 159 -82 193 -87 587 -92 l344 -4 19 -23 c49 -62 173
-84 255 -44 85 41 132 144 112 242 -9 42 -21 61 -59 98 -85 83 -201 88 -288
13 l-40 -34 -314 0 c-350 0 -379 4 -508 67 -144 70 -268 228 -306 389 -21 91
-14 255 15 337 66 187 243 347 433 392 130 31 282 13 398 -45 57 -29 60 -32
60 -68 1 -79 66 -166 145 -192 53 -17 125 -8 179 24 131 77 137 270 10 359
-33 23 -56 30 -110 35 -51 4 -80 12 -115 33 -61 38 -158 74 -252 93 -94 20
-268 20 -359 0z m775 -295 c25 -30 22 -75 -8 -104 -26 -27 -54 -31 -88 -13
-45 24 -56 56 -36 102 22 49 96 57 132 15z m161 -1190 c55 -26 56 -99 2 -135
-64 -41 -142 38 -105 107 18 34 62 46 103 28z"/>
<path d="M3135 3350 c-39 -41 -101 -80 -127 -80 -34 -1 -39 -15 -25 -71 l14
-54 119 -7 c66 -3 121 -4 124 -2 7 8 -30 175 -48 217 l-17 38 -40 -41z"/>
<path d="M2221 3175 c-152 -48 -198 -254 -83 -363 79 -74 226 -71 296 7 19 21
26 21 372 21 329 0 357 -1 407 -20 106 -40 181 -134 195 -247 l7 -58 120 0
120 0 -3 60 c-7 151 -84 295 -211 396 -63 50 -119 77 -208 100 -68 17 -113 19
-421 19 l-344 0 -20 25 c-45 57 -150 85 -227 60z m114 -147 c35 -30 37 -79 5
-113 -48 -51 -130 -16 -130 54 0 70 72 104 125 59z"/>
<path d="M1235 3074 c-82 -15 -205 -65 -205 -83 0 -6 5 -11 10 -11 21 0 99
-82 119 -125 23 -49 26 -50 68 -34 15 7 87 15 158 18 104 5 129 9 127 20 -2 8
-8 63 -14 123 l-12 108 -85 -1 c-47 0 -122 -7 -166 -15z"/>
<path d="M1853 3016 c4 -41 15 -96 25 -122 l18 -49 63 -3 63 -3 -8 38 c-11 49
-11 139 -1 181 l9 32 -88 0 -87 0 6 -74z"/>
<path d="M865 2941 c-131 -32 -204 -159 -162 -281 10 -28 10 -46 -1 -90 -19
-80 -17 -242 3 -320 20 -77 62 -169 104 -228 l31 -42 228 1 227 0 -57 18
c-171 55 -292 204 -305 374 -8 109 0 144 38 152 41 9 108 70 130 120 22 48 24
123 5 168 -36 88 -153 149 -241 128z m89 -152 c20 -16 26 -29 26 -59 0 -30 -6
-43 -26 -59 -15 -12 -37 -21 -49 -21 -12 0 -34 9 -49 21 -20 16 -26 29 -26 59
0 30 6 43 26 59 15 12 37 21 49 21 12 0 34 -9 49 -21z"/>
<path d="M2579 2703 c-13 -33 -29 -126 -29 -165 l0 -28 119 0 120 0 7 56 c3
30 17 77 30 102 13 26 24 50 24 55 0 4 -59 7 -130 7 l-130 0 -11 -27z"/>
<path d="M3387 2423 c10 -36 10 -150 0 -185 l-7 -26 139 -4 c154 -3 172 -10
219 -78 41 -61 20 -151 -48 -197 -33 -23 -34 -23 -460 -23 -421 0 -427 0 -446
21 -34 37 -95 62 -154 62 -177 0 -277 -195 -176 -342 61 -87 185 -113 278 -58
26 15 52 36 58 47 10 18 28 19 458 22 l447 3 67 32 c90 42 160 110 201 192 30
61 32 72 32 171 0 99 -2 110 -32 171 -39 80 -111 150 -191 187 -53 25 -67 27
-225 30 l-168 4 8 -29z m-702 -588 c49 -49 16 -125 -55 -125 -44 0 -80 35 -80
77 0 34 42 73 80 73 19 0 40 -9 55 -25z"/>
<path d="M1781 2329 c-33 -153 -142 -275 -295 -329 l-51 -19 222 0 222 -1 31
45 c31 45 82 149 94 192 6 18 -2 26 -49 53 -30 17 -78 49 -105 71 -27 21 -51
39 -54 39 -2 0 -9 -23 -15 -51z"/>
<path d="M603 2171 c-147 -107 -163 -300 -36 -427 78 -78 16 -74 960 -74 l841
0 -10 38 c-10 38 -6 152 7 185 7 16 -36 17 -809 17 -798 0 -816 0 -826 20 -8
15 -6 23 11 39 l21 20 -29 48 c-16 26 -40 74 -52 106 -13 31 -27 57 -31 57 -4
0 -25 -13 -47 -29z"/>
<path d="M2747 2111 c151 -137 397 -171 588 -81 62 30 155 96 155 111 0 5 -36
9 -80 9 -75 0 -82 -2 -123 -33 -24 -19 -65 -39 -91 -47 -88 -24 -209 3 -260
59 -17 19 -30 21 -125 21 l-106 -1 42 -38z"/>
</g>
</svg>
